<svg xmlns="http://www.w3.org/2000/svg" width="1200" height="750" viewBox="0 0 1200 750">
<defs><linearGradient id="g" x1="0" y1="0" x2="1" y2="1"><stop offset="0" stop-color="#e0693a"/><stop offset="1" stop-color="#a3360b"/></linearGradient></defs>
<rect width="1200" height="750" fill="url(#g)"/>
<rect x="28" y="28" width="1144" height="694" rx="32" fill="none" stroke="#ffffff" stroke-opacity=".6" stroke-width="4" stroke-dasharray="18 14"/>
<g transform="translate(520 205)"><svg xmlns="http://www.w3.org/2000/svg" width="160" height="160" viewBox="0 0 24 24" fill="none" stroke="#ffffff" stroke-width="1.5" stroke-linecap="round" stroke-linejoin="round" class="lucide lucide-camera" aria-hidden="true"><path d="M13.997 4a2 2 0 0 1 1.76 1.05l.486.9A2 2 0 0 0 18.003 7H20a2 2 0 0 1 2 2v9a2 2 0 0 1-2 2H4a2 2 0 0 1-2-2V9a2 2 0 0 1 2-2h1.997a2 2 0 0 0 1.759-1.048l.489-.904A2 2 0 0 1 10.004 4z"></path><circle cx="12" cy="13" r="3"></circle></svg></g>
<text x="600" y="445" text-anchor="middle" font-family="Helvetica, Arial, sans-serif" font-weight="700" font-size="72" fill="#ffffff">Replace me</text>
<text x="600" y="500" text-anchor="middle" font-family="Helvetica, Arial, sans-serif" font-size="32" fill="#ffffff" fill-opacity=".85">Your work</text>
</svg>
