<svg xmlns="http://www.w3.org/2000/svg" width="1200" height="750" viewBox="0 0 1200 750">
<defs><linearGradient id="g" x1="0" y1="0" x2="1" y2="1"><stop offset="0" stop-color="#945df0"/><stop offset="1" stop-color="#5d2cb2"/></linearGradient></defs>
<rect width="1200" height="750" fill="url(#g)"/>
<rect x="28" y="28" width="1144" height="694" rx="32" fill="none" stroke="#ffffff" stroke-opacity=".6" stroke-width="4" stroke-dasharray="18 14"/>
<g transform="translate(520 205)"><svg xmlns="http://www.w3.org/2000/svg" width="160" height="160" viewBox="0 0 24 24" fill="none" stroke="#ffffff" stroke-width="1.5" stroke-linecap="round" stroke-linejoin="round" class="lucide lucide-lightbulb" aria-hidden="true"><path d="M15 14c.2-1 .7-1.7 1.5-2.5 1-.9 1.5-2.2 1.5-3.5A6 6 0 0 0 6 8c0 1 .2 2.2 1.5 3.5.7.7 1.3 1.5 1.5 2.5"></path><path d="M9 18h6"></path><path d="M10 22h4"></path></svg></g>
<text x="600" y="445" text-anchor="middle" font-family="Helvetica, Arial, sans-serif" font-weight="700" font-size="72" fill="#ffffff">Replace me</text>
<text x="600" y="500" text-anchor="middle" font-family="Helvetica, Arial, sans-serif" font-size="32" fill="#ffffff" fill-opacity=".85">A project picture</text>
</svg>
