<svg xmlns="http://www.w3.org/2000/svg" width="1200" height="750" viewBox="0 0 1200 750">
<defs><linearGradient id="g" x1="0" y1="0" x2="1" y2="1"><stop offset="0" stop-color="#54896f"/><stop offset="1" stop-color="#23533b"/></linearGradient></defs>
<rect width="1200" height="750" fill="url(#g)"/>
<rect x="28" y="28" width="1144" height="694" rx="32" fill="none" stroke="#ffffff" stroke-opacity=".6" stroke-width="4" stroke-dasharray="18 14"/>
<g transform="translate(520 205)"><svg xmlns="http://www.w3.org/2000/svg" width="160" height="160" viewBox="0 0 24 24" fill="none" stroke="#ffffff" stroke-width="1.5" stroke-linecap="round" stroke-linejoin="round" class="lucide lucide-school" aria-hidden="true"><path d="M14 21v-3a2 2 0 0 0-4 0v3"></path><path d="M18 4.933V21"></path><path d="m4 6 7.106-3.79a2 2 0 0 1 1.788 0L20 6"></path><path d="m6 11-3.52 2.147a1 1 0 0 0-.48.854V19a2 2 0 0 0 2 2h16a2 2 0 0 0 2-2v-5a1 1 0 0 0-.48-.853L18 11"></path><path d="M6 4.933V21"></path><circle cx="12" cy="9" r="2"></circle></svg></g>
<text x="600" y="445" text-anchor="middle" font-family="Helvetica, Arial, sans-serif" font-weight="700" font-size="72" fill="#ffffff">Replace me</text>
<text x="600" y="500" text-anchor="middle" font-family="Helvetica, Arial, sans-serif" font-size="32" fill="#ffffff" fill-opacity=".85">Your classroom</text>
</svg>
