<svg xmlns="http://www.w3.org/2000/svg" width="1200" height="750" viewBox="0 0 1200 750">
<defs><linearGradient id="g" x1="0" y1="0" x2="1" y2="1"><stop offset="0" stop-color="#54896f"/><stop offset="1" stop-color="#23533b"/></linearGradient></defs>
<rect width="1200" height="750" fill="url(#g)"/>
<rect x="28" y="28" width="1144" height="694" rx="32" fill="none" stroke="#ffffff" stroke-opacity=".6" stroke-width="4" stroke-dasharray="18 14"/>
<g transform="translate(520 205)"><svg xmlns="http://www.w3.org/2000/svg" width="160" height="160" viewBox="0 0 24 24" fill="none" stroke="#ffffff" stroke-width="1.5" stroke-linecap="round" stroke-linejoin="round" class="lucide lucide-palette" aria-hidden="true"><path d="M12 22a1 1 0 0 1 0-20 10 9 0 0 1 10 9 5 5 0 0 1-5 5h-2.25a1.75 1.75 0 0 0-1.4 2.8l.3.4a1.75 1.75 0 0 1-1.4 2.8z"></path><circle cx="13.5" cy="6.5" r=".5" fill="currentColor"></circle><circle cx="17.5" cy="10.5" r=".5" fill="currentColor"></circle><circle cx="6.5" cy="12.5" r=".5" fill="currentColor"></circle><circle cx="8.5" cy="7.5" r=".5" fill="currentColor"></circle></svg></g>
<text x="600" y="445" text-anchor="middle" font-family="Helvetica, Arial, sans-serif" font-weight="700" font-size="72" fill="#ffffff">Replace me</text>
<text x="600" y="500" text-anchor="middle" font-family="Helvetica, Arial, sans-serif" font-size="32" fill="#ffffff" fill-opacity=".85">Student work</text>
</svg>
